# xmcd CD database file
#
# Track frame offsets:
#	182
#	16705
#	32455
#	50855
#	66872
#	84325
#	101425
#	117727
#	130222
#	149752
#
# Disc length: 2167 seconds
#
# Revision: 2
# Processed by: cddbd v1.4PL0 Copyright (c) Steve Scherf et al.
# Submitted via: CDex 1.40Beta9
#
DISCID=8a08750a
DTITLE=Steve Wariner - Greatest Hits Volume II
DYEAR=1991
DGENRE=Country
TTITLE0=Baby I'm Yours
TTITLE1=I Should Be With You
TTITLE2=Hold On (A Little Longer)
TTITLE3=Where Did I Go Wrong
TTITLE4=I Got Dreams
TTITLE5=When I Could Come Home To You
TTITLE6=The Domino Theory
TTITLE7=Precious Thing
TTITLE8=There For Awhile
TTITLE9=L-O-V-E, Love
EXTD=YEAR: 1991 ID3G: 2
EXTT0=
EXTT1=
EXTT2=
EXTT3=
EXTT4=
EXTT5=
EXTT6=
EXTT7=
EXTT8=
EXTT9=
PLAYORDER=
